<svg viewBox="0 0 492.64 449.71" xmlns="http://www.w3.org/2000/svg"><path d="m69.99 10.01 275-4 141 19-50 424" fill="none" stroke="#fff" stroke-miterlimit="10" stroke-width="12"/><path d="m.99 203.01 90 15 44-6 132 39 67 72 112.61 39.08" fill="none" stroke="#fff" stroke-miterlimit="10" stroke-width="12"/><path d="m478.99 30.01-7.27 60.25-31.73 262.75-103-35-66-72-109-33-4-142 16 1 2-57 169-3z" fill="#cfcfd1"/><path d="m307.99 265.01 30-70 49-36 76.06-.98 8.31-62.63-.64-8.95-54.73-34.44-29.62-37.13-43.46-5.75-146.34 3.19-22.58 155.69 9 9z" fill="#3d884c"/><path d="m477.35 90.31-140.36-1.3c-4.07.45-11.11 1.58-19 5-26.9 11.66-30.09 35.32-63 61-7.15 5.58-14.07 9.99-23 13-9.15 3.09-16.78 3.49-28 4-7.79.35-18.39.38-31-1" fill="none" stroke="#fff" stroke-miterlimit="10" stroke-width="12"/></svg>